# xmcd CD database file
#
# Track frame offsets:
#	150
#	16013
#	27986
#	41088
#	58266
#	70895
#	84357
#	98968
#	115062
#	130726
#	144575
#	160174
#
# Disc length: 2333 seconds
#
# Revision: 0
# Processed by: cddbd v1.5.1PL0 Copyright (c) Steve Scherf et al.
# Submitted via: CDex 1.51
#
DISCID=9b091b0c
DTITLE=Eartha Kitt - Platinum and Gold Collection
DYEAR=2003
DGENRE=Jazz
TTITLE0=I Want To Be Evil
TTITLE1=Mountain High, Valley Low
TTITLE2=Just an Old-Fashioned Girl
TTITLE3=Long Gone (From Bowlin' Green)
TTITLE4=The Heel
TTITLE5=Dinner for One Please, James
TTITLE6=Beale Street Blues
TTITLE7=Do You Remember?
TTITLE8=Memphis Blues
TTITLE9=Smoke Gets in Your Eyes
TTITLE10=Santa Baby
TTITLE11=The Day That the Circus Left Town
EXTD=YEAR: 2003
EXTT0=
EXTT1=
EXTT2=
EXTT3=
EXTT4=
EXTT5=
EXTT6=
EXTT7=
EXTT8=
EXTT9=
EXTT10=
EXTT11=
PLAYORDER=
